<svg xmlns="http://www.w3.org/2000/svg" viewBox="0 0 1280 560" role="img" aria-label="Phase ledger — Phase 0 through Phase 44 closed, Phase 45 in flight; 45 phases, 24 ADRs, 921 of 71 tests, 103 kB First Load JS unchanged for 85 consecutive units" font-family="ui-sans-serif,system-ui,-apple-system,Segoe UI,Roboto,Inter,sans-serif">
  <title>Phase ledger 0 → 45</title>
  <desc>Top: 45-phase timeline banded by thematic cluster, with ADR markers as gold dots above. Middle: 9 cluster cards in a 3-by-3 grid. Bottom: KPI strip with 9 headline metrics.</desc>
  <defs>
    <linearGradient id="bg-pl" x1="0" y1="0" x2="0" y2="1">
      <stop offset="0" stop-color="#0b1437"/><stop offset="1" stop-color="#0f172a"/>
    </linearGradient>
    <linearGradient id="band-foundation" x1="0" y1="0" x2="1" y2="0"><stop offset="0" stop-color="#1d4ed8"/><stop offset="1" stop-color="#3b82f6"/></linearGradient>
    <linearGradient id="band-editorial" x1="0" y1="0" x2="1" y2="0"><stop offset="0" stop-color="#059669"/><stop offset="1" stop-color="#10b981"/></linearGradient>
    <linearGradient id="band-intel" x1="0" y1="0" x2="1" y2="0"><stop offset="0" stop-color="#7c3aed"/><stop offset="1" stop-color="#a855f7"/></linearGradient>
    <linearGradient id="band-bilingual" x1="0" y1="0" x2="1" y2="0"><stop offset="0" stop-color="#0ea5e9"/><stop offset="1" stop-color="#22d3ee"/></linearGradient>
    <linearGradient id="band-auth" x1="0" y1="0" x2="1" y2="0"><stop offset="0" stop-color="#f59e0b"/><stop offset="1" stop-color="#fbbf24"/></linearGradient>
    <linearGradient id="band-ops" x1="0" y1="0" x2="1" y2="0"><stop offset="0" stop-color="#dc2626"/><stop offset="1" stop-color="#f87171"/></linearGradient>
    <linearGradient id="band-email" x1="0" y1="0" x2="1" y2="0"><stop offset="0" stop-color="#9333ea"/><stop offset="1" stop-color="#c084fc"/></linearGradient>
    <linearGradient id="band-moderation" x1="0" y1="0" x2="1" y2="0"><stop offset="0" stop-color="#0d9488"/><stop offset="1" stop-color="#2dd4bf"/></linearGradient>
    <linearGradient id="band-markdown" x1="0" y1="0" x2="1" y2="0"><stop offset="0" stop-color="#be185d"/><stop offset="1" stop-color="#ec4899"/></linearGradient>
    <linearGradient id="band-pending" x1="0" y1="0" x2="1" y2="0"><stop offset="0" stop-color="#475569"/><stop offset="1" stop-color="#64748b"/></linearGradient>
  </defs>
  <rect width="1280" height="560" fill="url(#bg-pl)"/>

  <g transform="translate(40,36)">
    <text x="0" y="0" fill="#f8fafc" font-size="26" font-weight="800" letter-spacing="-0.3">Phase ledger · 0 → 45</text>
    <text x="0" y="22" fill="#cbd5e1" font-size="13">All 45 phases closed (✅). Phase 45 in flight (⏸ at Unit 45.0). 9 thematic clusters · 24 ADRs · 921/71 tests · 103 kB First Load JS UNCHANGED for 85 consecutive units.</text>
    <text x="1200" y="-2" text-anchor="end" fill="#94a3b8" font-size="11" font-family="ui-monospace,SFMono-Regular,Menlo,monospace" letter-spacing="1.4">FIG · 5 / 7</text>
    <text x="1200" y="18" text-anchor="end" fill="#94a3b8" font-size="11" font-family="ui-monospace,SFMono-Regular,Menlo,monospace" letter-spacing="1.4">HEAD a7e971b · 2026-05-18</text>
  </g>

  <!-- Timeline: origin x=40, width=1200. 46 phases (0..45) over 1200 px → 26.087 per phase. -->
  <!-- Cluster width math (phases × 26.087): Foundation P0-2 (3) = 78 · Intel P3-6 (4) = 104 · Bilingual P7-8 (2) = 52 · Auth P9-14 (6) = 156 · Ops P15-21 (7) = 183 · Scripts P22-25 (4) = 104 · Editorial P26-29 (4) = 104 · Email P30-34 (5) = 131 · Moderation P35-36 (2) = 52 · Markdown P37-44 (8) = 209 · Pending P45 (1) = 27. -->
  <g transform="translate(40,108)">
    <!-- ADR markers (dots above the track) -->
    <g fill="#fbbf24">
      <circle cx="13" cy="-12" r="3.5"/><!-- ADRs 0001-0005 at P0 (rendered as one dot) -->
      <circle cx="91" cy="-12" r="3.5"/><!-- 0006 P3 -->
      <circle cx="117" cy="-12" r="3.5"/><!-- 0007 P4 -->
      <circle cx="143" cy="-12" r="3.5"/><!-- 0008-0009 P5 -->
      <circle cx="169" cy="-12" r="3.5"/><!-- 0010 P6 -->
      <circle cx="196" cy="-12" r="3.5"/><!-- 0011 P7 -->
      <circle cx="248" cy="-12" r="3.5"/><!-- 0012-0013 P9 -->
      <circle cx="326" cy="-12" r="3.5"/><!-- 0014 P12 -->
      <circle cx="378" cy="-12" r="3.5"/><!-- 0015 P14 -->
      <circle cx="404" cy="-12" r="3.5"/><!-- 0016 P15 -->
      <circle cx="430" cy="-12" r="3.5"/><!-- 0017 P16 -->
      <circle cx="456" cy="-12" r="3.5"/><!-- 0018 P17 -->
      <circle cx="508" cy="-12" r="3.5"/><!-- 0019 P19 -->
      <circle cx="743" cy="-12" r="3.5"/><!-- 0020 P28 -->
      <circle cx="795" cy="-12" r="3.5"/><!-- 0021 P30 -->
      <circle cx="821" cy="-12" r="3.5"/><!-- 0022 P31 -->
      <circle cx="873" cy="-12" r="3.5"/><!-- 0023 P33 -->
      <circle cx="925" cy="-12" r="3.5"/><!-- 0024 P35 -->
    </g>

    <!-- cluster bands. each cluster ends mid-gap between phases -->
    <g>
      <rect x="0"    y="0" width="78"  height="50" fill="url(#band-foundation)"/>
      <rect x="78"   y="0" width="104" height="50" fill="url(#band-intel)"/>
      <rect x="182"  y="0" width="52"  height="50" fill="url(#band-bilingual)"/>
      <rect x="234"  y="0" width="156" height="50" fill="url(#band-auth)"/>
      <rect x="390"  y="0" width="183" height="50" fill="url(#band-ops)"/>
      <rect x="573"  y="0" width="104" height="50" fill="url(#band-ops)" opacity="0.78"/>
      <rect x="677"  y="0" width="104" height="50" fill="url(#band-editorial)"/>
      <rect x="781"  y="0" width="131" height="50" fill="url(#band-email)"/>
      <rect x="912"  y="0" width="52"  height="50" fill="url(#band-moderation)"/>
      <rect x="964"  y="0" width="209" height="50" fill="url(#band-markdown)"/>
      <rect x="1173" y="0" width="27"  height="50" fill="url(#band-pending)"/>
    </g>

    <!-- vertical separators between clusters (subtle) -->
    <g stroke="#0b1437" stroke-width="2" stroke-opacity="0.45">
      <line x1="78"   y1="0" x2="78"   y2="50"/>
      <line x1="182"  y1="0" x2="182"  y2="50"/>
      <line x1="234"  y1="0" x2="234"  y2="50"/>
      <line x1="390"  y1="0" x2="390"  y2="50"/>
      <line x1="573"  y1="0" x2="573"  y2="50"/>
      <line x1="677"  y1="0" x2="677"  y2="50"/>
      <line x1="781"  y1="0" x2="781"  y2="50"/>
      <line x1="912"  y1="0" x2="912"  y2="50"/>
      <line x1="964"  y1="0" x2="964"  y2="50"/>
      <line x1="1173" y1="0" x2="1173" y2="50"/>
    </g>

    <!-- phase ticks across the bottom -->
    <g font-size="10" font-family="ui-monospace,SFMono-Regular,Menlo,monospace" fill="#cbd5e1">
      <text x="0"    y="70" text-anchor="middle">P0</text>
      <text x="130"  y="70" text-anchor="middle">P5</text>
      <text x="261"  y="70" text-anchor="middle">P10</text>
      <text x="391"  y="70" text-anchor="middle">P15</text>
      <text x="521"  y="70" text-anchor="middle">P20</text>
      <text x="652"  y="70" text-anchor="middle">P25</text>
      <text x="782"  y="70" text-anchor="middle">P30</text>
      <text x="913"  y="70" text-anchor="middle">P35</text>
      <text x="1043" y="70" text-anchor="middle">P40</text>
      <text x="1186" y="70" text-anchor="middle" fill="#fbbf24" font-weight="700">P45 ⏸</text>
    </g>

    <!-- "EVERY GOLD DOT = AN ADR" legend -->
    <g transform="translate(0,-30)">
      <circle cx="6" cy="0" r="3.5" fill="#fbbf24"/>
      <text x="18" y="3" fill="#94a3b8" font-size="10" font-family="ui-monospace,SFMono-Regular,Menlo,monospace" letter-spacing="1.2">EACH GOLD DOT = ONE ADR (18 distinct phases · 24 ADRs)</text>
    </g>
  </g>

  <!-- Cluster legend: 3 cols x 3 rows of 9 + 1 pending. Each card 388 wide x 88 tall. Gap 14. -->
  <g transform="translate(40,222)">
    <!-- row 1 -->
    <g transform="translate(0,0)">
      <rect width="388" height="88" rx="10" fill="#1e293b" stroke="#334155"/>
      <rect x="0" y="0" width="6" height="88" fill="url(#band-foundation)"/>
      <text x="20" y="22" fill="#dbeafe" font-weight="700" font-size="14">Foundation</text>
      <text x="20" y="42" fill="#94a3b8" font-size="11" font-family="ui-monospace,SFMono-Regular,Menlo,monospace">P0 — P2 · 3 phases · 5 ADRs</text>
      <text x="20" y="62" fill="#cbd5e1" font-size="11">Stack · schemas · App Router stub · Velite</text>
      <text x="20" y="78" fill="#cbd5e1" font-size="11">pipeline · brand · first problems</text>
    </g>
    <g transform="translate(402,0)">
      <rect width="388" height="88" rx="10" fill="#1e293b" stroke="#334155"/>
      <rect x="0" y="0" width="6" height="88" fill="url(#band-intel)"/>
      <text x="20" y="22" fill="#ede9fe" font-weight="700" font-size="14">Rating · DomainMap · Intel · Discussions</text>
      <text x="20" y="42" fill="#94a3b8" font-size="11" font-family="ui-monospace,SFMono-Regular,Menlo,monospace">P3 — P6 · 4 phases · 5 ADRs</text>
      <text x="20" y="62" fill="#cbd5e1" font-size="11">Rating dynamics · movers · D3 force-directed</text>
      <text x="20" y="78" fill="#cbd5e1" font-size="11">domain map · arXiv ingest · Giscus discussions</text>
    </g>
    <g transform="translate(804,0)">
      <rect width="388" height="88" rx="10" fill="#1e293b" stroke="#334155"/>
      <rect x="0" y="0" width="6" height="88" fill="url(#band-bilingual)"/>
      <text x="20" y="22" fill="#cffafe" font-weight="700" font-size="14">Bilingual rendering</text>
      <text x="20" y="42" fill="#94a3b8" font-size="11" font-family="ui-monospace,SFMono-Regular,Menlo,monospace">P7 — P8 · 2 phases · ADR-0011</text>
      <text x="20" y="62" fill="#cbd5e1" font-size="11">next-intl · sub-path routing · sibling-file</text>
      <text x="20" y="78" fill="#cbd5e1" font-size="11">storage · 168 keys / locale</text>
    </g>

    <!-- row 2 -->
    <g transform="translate(0,102)">
      <rect width="388" height="88" rx="10" fill="#1e293b" stroke="#334155"/>
      <rect x="0" y="0" width="6" height="88" fill="url(#band-auth)"/>
      <text x="20" y="22" fill="#fef3c7" font-weight="700" font-size="14">Auth · Profile · Curator · Visibility</text>
      <text x="20" y="42" fill="#94a3b8" font-size="11" font-family="ui-monospace,SFMono-Regular,Menlo,monospace">P9 — P14 · 6 phases · 4 ADRs · §13 closed</text>
      <text x="20" y="62" fill="#cbd5e1" font-size="11">NextAuth v5 · Turso · rating-challenge form</text>
      <text x="20" y="78" fill="#cbd5e1" font-size="11">curator state machine · per-handle profiles</text>
    </g>
    <g transform="translate(402,102)">
      <rect width="388" height="88" rx="10" fill="#1e293b" stroke="#334155"/>
      <rect x="0" y="0" width="6" height="88" fill="url(#band-ops)"/>
      <text x="20" y="22" fill="#fee2e2" font-weight="700" font-size="14">Profile fields · Avatars · EXIF · Op scripts</text>
      <text x="20" y="42" fill="#94a3b8" font-size="11" font-family="ui-monospace,SFMono-Regular,Menlo,monospace">P15 — P25 · 11 phases · 3 ADRs · 6 op-script keystones</text>
      <text x="20" y="62" fill="#cbd5e1" font-size="11">displayName · bio · Vercel Blob · sharp EXIF</text>
      <text x="20" y="78" fill="#cbd5e1" font-size="11">backfill · orphan cleanup · emit-challenge-action</text>
    </g>
    <g transform="translate(804,102)">
      <rect width="388" height="88" rx="10" fill="#1e293b" stroke="#334155"/>
      <rect x="0" y="0" width="6" height="88" fill="url(#band-editorial)"/>
      <text x="20" y="22" fill="#d1fae5" font-weight="700" font-size="14">Editorial UX</text>
      <text x="20" y="42" fill="#94a3b8" font-size="11" font-family="ui-monospace,SFMono-Regular,Menlo,monospace">P26 — P29 · 4 phases · ADR-0018 D-G #2/#3</text>
      <text x="20" y="62" fill="#cbd5e1" font-size="11">Per-challenge detail · markdown rationale</text>
      <text x="20" y="78" fill="#cbd5e1" font-size="11">multi-provider OAuth · actionRationale MDX</text>
    </g>

    <!-- row 3 -->
    <g transform="translate(0,204)">
      <rect width="388" height="88" rx="10" fill="#1e293b" stroke="#334155"/>
      <rect x="0" y="0" width="6" height="88" fill="url(#band-email)"/>
      <text x="20" y="22" fill="#ede9fe" font-weight="700" font-size="14">Subscriber · Email · Cron</text>
      <text x="20" y="42" fill="#94a3b8" font-size="11" font-family="ui-monospace,SFMono-Regular,Menlo,monospace">P30 — P34 · 5 phases · 3 ADRs · 22-phase patience close</text>
      <text x="20" y="62" fill="#cbd5e1" font-size="11">Resend · 3 templates · weekly digest cron</text>
      <text x="20" y="78" fill="#cbd5e1" font-size="11">per-user subscriptions · "manage" widget</text>
    </g>
    <g transform="translate(402,204)">
      <rect width="388" height="88" rx="10" fill="#1e293b" stroke="#334155"/>
      <rect x="0" y="0" width="6" height="88" fill="url(#band-moderation)"/>
      <text x="20" y="22" fill="#ccfbf1" font-weight="700" font-size="14">Moderation · Privacy</text>
      <text x="20" y="42" fill="#94a3b8" font-size="11" font-family="ui-monospace,SFMono-Regular,Menlo,monospace">P35 — P36 · 2 phases · ADR-0024 · 0025 candidate slot</text>
      <text x="20" y="62" fill="#cbd5e1" font-size="11">Framework-only ContentModerator interface</text>
      <text x="20" y="78" fill="#cbd5e1" font-size="11">per-user privacy opt-out (Q64 closure)</text>
    </g>
    <g transform="translate(804,204)">
      <rect width="388" height="88" rx="10" fill="#1e293b" stroke="#334155" stroke-width="1.5"/>
      <rect x="0" y="0" width="6" height="88" fill="url(#band-markdown)"/>
      <text x="20" y="22" fill="#fce7f3" font-weight="700" font-size="14">Markdown extension framework <tspan fill="#fbbf24" font-size="11">★</tspan></text>
      <text x="20" y="42" fill="#94a3b8" font-size="11" font-family="ui-monospace,SFMono-Regular,Menlo,monospace">P37 — P44 · 8 phases · 8 D-G APPENDs · 12/12 triples</text>
      <text x="20" y="62" fill="#cbd5e1" font-size="11">Framework + 3 consumers + composition</text>
      <text x="20" y="78" fill="#cbd5e1" font-size="11">+ 3 cross-surface expansions · Phase 45 → DOI</text>
    </g>
  </g>

  <!-- Bottom stats bar -->
  <g transform="translate(40,520)">
    <rect width="1200" height="36" rx="10" fill="#1e293b" stroke="#334155"/>
    <g transform="translate(20,12)" font-size="10" font-family="ui-monospace,SFMono-Regular,Menlo,monospace">
      <g><text y="0" fill="#94a3b8" letter-spacing="1.1">PHASES </text><text x="56" y="0" fill="#fbbf24" font-size="13" font-weight="800">45</text></g>
      <g transform="translate(98,0)"><text y="0" fill="#94a3b8" letter-spacing="1.1">ADRs </text><text x="38" y="0" fill="#fbbf24" font-size="13" font-weight="800">24</text></g>
      <g transform="translate(168,0)"><text y="0" fill="#94a3b8" letter-spacing="1.1">CHANGELOG </text><text x="84" y="0" fill="#fbbf24" font-size="13" font-weight="800">~8.5k</text></g>
      <g transform="translate(298,0)"><text y="0" fill="#94a3b8" letter-spacing="1.1">VITEST FILES </text><text x="92" y="0" fill="#fbbf24" font-size="13" font-weight="800">71</text></g>
      <g transform="translate(420,0)"><text y="0" fill="#94a3b8" letter-spacing="1.1">VITEST TESTS </text><text x="92" y="0" fill="#fbbf24" font-size="13" font-weight="800">921</text></g>
      <g transform="translate(548,0)"><text y="0" fill="#94a3b8" letter-spacing="1.1">FIRST LOAD JS </text><text x="98" y="0" fill="#fbbf24" font-size="13" font-weight="800">103 kB</text></g>
      <g transform="translate(700,0)"><text y="0" fill="#94a3b8" letter-spacing="1.1">UNCHANGED STREAK </text><text x="124" y="0" fill="#fbbf24" font-size="13" font-weight="800">85+ units</text></g>
      <g transform="translate(880,0)"><text y="0" fill="#94a3b8" letter-spacing="1.1">MIGRATIONS </text><text x="80" y="0" fill="#fbbf24" font-size="13" font-weight="800">9</text></g>
      <g transform="translate(978,0)"><text y="0" fill="#94a3b8" letter-spacing="1.1">i18n KEYS / LOCALE </text><text x="132" y="0" fill="#fbbf24" font-size="13" font-weight="800">168</text></g>
    </g>
  </g>
</svg>
